<?xml version="1.0" encoding="UTF-8"?> <svg xmlns="http://www.w3.org/2000/svg" xmlns:xlink="http://www.w3.org/1999/xlink" width="270px" height="205px" viewBox="0 0 270 205" version="1.1"><title>EHC_Logo_Primary_Full-Color_RGB</title><g id="Page-1" stroke="none" stroke-width="1" fill="none" fill-rule="evenodd"><g id="EHC_Logo_Primary_Full-Color_RGB" transform="translate(0.460000, 0.430000)" fill-rule="nonzero"><g id="Group" transform="translate(0.000000, 138.040000)" fill="#50505A"><polygon id="Path" points="0.01 23.37 0.01 0.04 17.16 0.02 17.16 4.38 4.67 4.38 4.67 9.36 14.03 9.36 14.03 13.7 4.67 13.7 4.67 19.01 17.12 19.01 17.12 23.37 5.68434189e-14 23.37"></polygon><path d="M28.6,23.37 L37.94,0.02 L42.61,0.02 L51.93,23.35 L46.96,23.35 C46.96,23.35 45.56,19.78 45.56,19.78 L34.97,19.78 L33.57,23.36 L28.59,23.36 L28.6,23.37 Z M40.4,6.24 L36.85,15.11 L43.85,15.11 L40.39,6.24 L40.4,6.24 Z" id="Shape"></path><path d="M65.48,20.01 C63.24,17.79 62.12,15 62.12,11.64 C62.13,8.36 63.25,5.6 65.48,3.37 C67.71,1.13 70.47,0.01 73.77,0.01 C77.07,0.01 79.96,1.05 82.35,3.12 L79.24,6.53 C77.65,5.29 75.83,4.66 73.77,4.66 C71.67,4.66 69.98,5.33 68.7,6.62 C67.42,7.92 66.78,9.58 66.78,11.6 C66.79,13.77 67.44,15.49 68.73,16.77 C70.02,18.05 71.71,18.69 73.8,18.69 C75.48,18.69 76.77,18.36 77.67,17.69 L77.67,13.69 L74.56,13.71 L74.56,9.35 L82.34,9.35 L82.34,20.25 C79.96,22.32 77.11,23.36 73.76,23.36 C70.46,23.36 67.69,22.23 65.46,20.01 L65.48,20.01 Z" id="Path"></path><polygon id="Path" points="99.75 0.02 99.75 19.01 112.2 19.01 112.2 23.37 95.08 23.37 95.08 0.02"></polygon><polygon id="Path" points="123.96 23.37 123.96 0.04 141.11 0.02 141.11 4.38 128.63 4.38 128.63 9.36 137.98 9.36 137.98 13.7 128.63 13.7 128.63 19.01 141.08 19.01 141.08 23.37 123.96 23.37"></polygon><path d="M172.64,23.37 L172.64,0.02 L177.31,0.02 L177.31,9.36 L188.19,9.36 L188.19,0.01 L192.86,0.01 L192.86,23.36 L188.19,23.36 C188.19,23.36 188.19,13.72 188.19,13.72 L177.31,13.72 L177.31,23.37 L172.64,23.37 L172.64,23.37 Z" id="Path"></path><polygon id="Path" points="205.88 0 210.53 0 210.53 23.37 205.88 23.37"></polygon><polygon id="Path" points="227.91 0.02 227.91 19.01 240.36 19.01 240.36 23.37 223.24 23.37 223.24 0.02"></polygon><polygon id="Path" points="256.89 0.02 256.89 19.01 269.34 19.01 269.34 23.37 252.22 23.37 252.22 0.02"></polygon></g><g id="Group" transform="translate(44.430000, 171.630000)" fill="#D8562F"><path d="M7.36,16 C6.77,16.41 6.37,16.61 6.18,16.61 C5.46,16.61 4.8,16.15 4.23,15.23 C3.84,15.6 3.44,16 3.03,16.37 C2.33,17.05 1.72,17.4 1.22,17.4 C0.72,17.4 0.39,17.05 0.17,16.33 C0.06,15.92 0,15.48 0,15.04 C0,14.3 0.11,13.27 0.35,11.98 C0.55,11.13 0.72,10.27 0.9,9.42 C1.1,9 1.38,8.81 1.8,8.81 C2.15,8.81 2.35,9.16 2.41,9.88 C2.41,10.03 2.23,10.64 1.91,11.67 C1.58,12.7 1.43,13.44 1.43,13.95 C1.43,13.95 1.43,14.1 1.41,14.38 C1.39,14.62 1.39,14.82 1.41,14.97 C1.45,15.19 1.52,15.38 1.61,15.54 C1.68,15.56 1.72,15.56 1.76,15.56 C2.22,15.56 2.83,14.88 3.62,13.55 C4.43,12.21 4.96,11.54 5.22,11.54 C5.55,11.54 5.72,11.78 5.72,12.28 C5.72,12.56 5.63,13.44 5.63,13.79 C5.63,14.6 5.96,14.99 6.64,14.99 C6.71,14.99 6.88,14.88 7.21,14.69 C7.58,14.49 7.84,14.36 7.97,14.29 C8.21,14.38 8.34,14.55 8.34,14.84 C8.34,15.15 8.01,15.54 7.38,16 L7.36,16 Z" id="Path"></path><path d="M15.58,14.34 C16.22,13.92 16.7,13.62 17.02,13.44 C17.15,13.59 17.22,13.7 17.22,13.81 C17.22,14.2 16.7,14.82 15.64,15.67 C14.66,16.46 14.04,16.85 13.83,16.85 C13.41,16.85 13.13,16.3 13.02,15.23 C12.95,14.44 12.91,13.65 12.87,12.87 C12.58,13.22 12.21,13.68 11.71,14.27 C11.3,14.73 10.84,15.48 10.36,16.48 C9.99,17.22 9.68,17.59 9.4,17.59 C9.18,17.59 9.01,17.44 8.85,17.16 C8.74,16.94 8.7,16.77 8.7,16.63 C8.7,16.02 8.87,14.64 9.2,12.49 C9.62,9.87 10.01,8.55 10.4,8.55 C10.9,8.55 11.32,8.95 11.32,9.29 C11.32,9.58 11.08,10.78 10.58,12.9 L10.49,13.69 C10.62,13.38 11.02,12.84 11.65,12.05 C12.44,11.07 13.03,10.61 13.42,10.67 C14.01,10.69 14.34,11.13 14.4,11.94 C14.47,12.93 14.51,13.91 14.55,14.89 C14.75,14.85 15.08,14.65 15.58,14.32 L15.58,14.34 Z" id="Path"></path><path d="M21.22,16.46 C19.93,17.01 19.01,17.27 18.44,17.25 C17.98,17.23 17.5,17.05 17.02,16.73 C16.45,16.33 16.17,15.9 16.15,15.39 C16.13,14.01 16.78,12.44 18.16,10.67 C19.49,8.94 20.68,8.07 21.68,8.07 C22.22,8.07 22.73,8.38 22.73,8.81 C22.73,8.9 22.62,9.14 22.4,9.53 C21.66,9.4 20.67,10.06 19.47,11.5 C18.31,12.9 17.74,14.02 17.74,14.85 C17.74,15.14 17.94,15.35 18.31,15.51 C18.55,15.62 18.75,15.66 18.94,15.66 C19.01,15.66 19.2,15.64 19.51,15.6 C19.84,15.55 20.08,15.51 20.25,15.44 C20.45,15.38 20.86,15.2 21.54,14.92 C22.22,14.64 22.57,14.48 22.63,14.46 C22.87,14.39 23.11,14.54 23.2,14.54 C23.2,14.54 23.2066667,14.5566667 23.22,14.59 C23.28,14.65 23.33,14.74 23.33,14.85 C23.33,15.33 22.63,15.88 21.21,16.47 L21.22,16.46 Z" id="Path"></path><path d="M24.52,12.91 C24.72,12.03 24.96,11.38 25.24,10.94 C25.61,10.35 25.98,9.78 26.36,9.19 C26.77,8.6 27.24,8.29 27.72,8.25 C27.83,8.25 27.96,8.32 28.11,8.47 C28.3,8.67 28.41,8.86 28.41,9.08 C28.41,9.14 28.41,9.23 28.39,9.3 C29.07,9.5 29.62,10.53 29.68,11.25 C29.75,12.28 29.53,13.44 29.07,14.73 C28.39,16.57 27.34,17.42 25.92,17.27 C25.26,17.03 24.8,16.62 24.52,16.04 C24.32,15.62 24.21,15.21 24.23,14.77 C24.26,14.23 24.36,13.61 24.52,12.91 L24.52,12.91 Z M27.76,10.59 C27.3,10.61 26.84,11.18 26.36,12.28 C25.9,13.31 25.7,14.12 25.75,14.71 C25.77,15.08 26.19,15.61 26.54,15.59 C27.04,15.56 27.5,14.93 27.88,13.69 C28.16,12.68 28.29,11.96 28.27,11.55 C28.23,10.89 28.05,10.59 27.77,10.61 L27.76,10.59 Z" id="Shape"></path><path d="M37.9,14.34 C38.53,13.92 39.02,13.62 39.35,13.44 C39.48,13.59 39.54,13.7 39.54,13.81 C39.54,14.2 39.02,14.82 37.97,15.67 C36.98,16.46 36.37,16.85 36.15,16.85 C35.73,16.85 35.45,16.3 35.34,15.23 C35.28,14.44 35.23,13.65 35.19,12.87 C34.91,13.22 34.54,13.68 34.03,14.27 C33.62,14.73 33.16,15.48 32.67,16.48 C32.3,17.22 31.99,17.59 31.71,17.59 C31.49,17.59 31.32,17.44 31.16,17.16 C31.05,16.94 31.01,16.77 31.01,16.63 C31.01,16.02 31.19,14.64 31.51,12.49 C31.93,9.87 32.32,8.55 32.72,8.55 C33.22,8.55 33.64,8.95 33.64,9.29 C33.64,9.58 33.4,10.78 32.9,12.9 L32.81,13.69 C32.94,13.38 33.34,12.84 33.97,12.05 C34.76,11.07 35.35,10.61 35.74,10.67 C36.33,10.69 36.66,11.13 36.73,11.94 C36.8,12.93 36.84,13.91 36.88,14.89 C37.08,14.85 37.41,14.65 37.91,14.32 L37.9,14.34 Z" id="Path"></path><path d="M45.62,7.99 C46.12,7.99 46.45,8.52 46.45,9.04 C46.45,9.02 46.23,9.26 45.79,9.76 C45.33,10.3 45.03,10.74 44.87,11.12 C44.3,12.67 43.56,14.6 42.62,16.85 C42.53,17.09 42.12,17.53 41.88,17.53 C41.47,17.53 41.12,17.03 40.83,16.02 C40.68,15.48 40.57,14.9 40.5,14.31 C40.44,13.7 40.26,12.76 39.98,11.51 C39.7,10.35 39.56,9.78 39.56,9.76 C39.56,9.54 39.73,9.32 40.08,9.1 C40.37,8.9 40.56,8.81 40.67,8.81 C41.17,8.81 41.48,9.12 41.59,9.73 C41.63,9.93 41.65,10.39 41.65,11.13 C41.65,11.94 41.68,12.55 41.7,12.92 C41.79,13.55 41.83,13.93 41.85,14.04 L42.07,14.65 C42.18,14.43 42.5,13.62 43.03,12.2 C43.53,10.82 43.84,10.06 43.95,9.9 C44.74,8.61 45.29,7.97 45.61,7.97 L45.62,7.99 Z" id="Path"></path><path d="M52.38,16.13 C51.53,16.77 50.59,17.12 49.6,17.22 C47.85,17.22 46.69,15.98 46.69,14.31 C46.69,14.13 46.78,13.7 46.8,12.41 C48.27,9.78 49.69,8.47 51.07,8.47 C52.05,8.47 52.54,8.84 52.54,9.56 C52.54,10.57 52.08,11.51 51.18,12.41 C50.37,13.24 49.43,13.79 48.38,14.05 C48.29,14.64 48.47,15.08 48.91,15.36 C49.24,15.55 49.63,15.66 50.11,15.66 C50.44,15.66 50.94,15.49 51.62,15.16 C52.3,14.83 52.78,14.48 53.04,14.11 C53.45,13.74 53.69,13.8 53.72,14.33 C53.59,14.66 53.44,14.96 53.19,15.29 L52.38,16.12 L52.38,16.13 Z M50.65,10.12 C50.34,10.18 49.99,10.47 49.6,10.93 C49.27,11.3 49.01,11.7 48.79,12.11 C49.95,11.7 50.72,11.06 51.07,10.23 C50.94,10.12 50.79,10.1 50.66,10.12 L50.65,10.12 Z" id="Shape"></path><path d="M61.34,14.34 C61.97,13.92 62.46,13.62 62.79,13.44 C62.92,13.59 62.98,13.7 62.98,13.81 C62.98,14.2 62.46,14.82 61.41,15.67 C60.43,16.46 59.81,16.85 59.6,16.85 C59.18,16.85 58.9,16.3 58.79,15.23 C58.73,14.44 58.68,13.65 58.64,12.87 C58.36,13.22 57.99,13.68 57.48,14.27 C57.06,14.73 56.6,15.48 56.12,16.48 C55.75,17.22 55.44,17.59 55.16,17.59 C54.94,17.59 54.77,17.44 54.61,17.16 C54.5,16.94 54.46,16.77 54.46,16.63 C54.46,16.02 54.64,14.64 54.96,12.49 C55.38,9.87 55.77,8.55 56.16,8.55 C56.66,8.55 57.08,8.95 57.08,9.29 C57.08,9.58 56.84,10.78 56.34,12.9 L56.25,13.69 C56.38,13.38 56.77,12.84 57.41,12.05 C58.2,11.07 58.79,10.61 59.18,10.67 C59.77,10.69 60.1,11.13 60.16,11.94 C60.23,12.93 60.27,13.91 60.31,14.89 C60.51,14.85 60.83,14.65 61.34,14.32 L61.34,14.34 Z" id="Path"></path><path d="M61.93,10.44 C61.82,10.22 61.75,10 61.75,9.78 C61.75,9.3 62.12,9.06 62.89,9.06 C63.44,9.06 63.9,9.04 64.29,9 C64.4,8.32 64.59,7.32 64.88,5.94 C65.08,5.04 65.25,4.43 65.4,4.06 C65.73,3.32 66.1,2.96 66.54,3.01 C66.62,3.03 66.78,3.14 67.02,3.34 C67.26,3.54 67.37,3.71 67.37,3.82 C67.37,3.8 67.15,4.43 66.69,5.7 C66.23,7.03 65.95,8.13 65.84,8.94 L66.78,8.88 C67.43,8.88 67.87,8.9 68.07,8.97 C68.18,9.06 68.24,9.14 68.24,9.25 C68.24,9.21 68.18,9.38 68.07,9.75 C66.91,10.21 66.1,10.47 65.64,10.54 C65.53,10.82 65.46,11.42 65.46,12.27 C65.46,13.21 65.55,14 65.7,14.65 C65.9,15.46 66.2,15.86 66.57,15.86 C66.83,15.86 67.14,15.68 67.51,15.36 C67.88,15.03 68.08,14.86 68.14,14.86 C68.25,14.86 68.38,14.82 68.45,14.82 C68.56,14.82 68.69,14.93 68.8,15.15 L68.8,15.48 C68.67,15.9 68.3,16.29 67.7,16.7 C67.11,17.11 66.63,17.31 66.21,17.31 C64.68,17.31 63.91,15.76 63.91,12.67 C63.91,12.06 63.93,11.4 64,10.72 C63.93,10.72 63.67,10.74 63.24,10.81 C62.82,10.85 62.56,10.87 62.49,10.87 C62.25,10.87 62.06,10.74 61.9,10.46 L61.93,10.44 Z" id="Path"></path><path d="M72.23,18.14 C71.86,18.14 71.36,17.53 70.74,16.32 C70.43,14.99 70.3,13.81 70.35,12.73 C70.41,10.98 70.41,10.06 70.35,10 L70.55,9.41 C70.66,9.15 70.9,9.02 71.25,9.02 C71.75,9.02 72.02,9.37 72.02,10.09 C72.02,10.29 72,10.53 71.95,10.81 C71.91,11.09 71.89,11.25 71.89,11.27 L71.89,13.5 C71.89,14.92 72.2,16.34 72.83,17.77 C72.72,18.01 72.52,18.14 72.24,18.14 L72.23,18.14 Z M73.1,6.37 C72.62,6.7 72.23,6.85 71.94,6.85 C71.65,6.85 71.42,6.72 71.26,6.48 C71.13,6.28 71.06,6.09 71.06,5.87 C71.06,5.54 71.19,5.28 71.45,5.1 C71.61,4.99 71.89,4.95 72.26,4.95 C72.52,4.95 72.76,4.99 73,5.08 C73.31,5.21 73.46,5.39 73.46,5.6 C73.46,5.93 73.33,6.19 73.09,6.37 L73.1,6.37 Z" id="Shape"></path><path d="M74.39,12.91 C74.59,12.03 74.83,11.38 75.11,10.94 C75.48,10.35 75.85,9.78 76.23,9.19 C76.65,8.6 77.1,8.29 77.59,8.25 C77.7,8.25 77.83,8.32 77.98,8.47 C78.18,8.67 78.29,8.86 78.29,9.08 C78.29,9.14 78.29,9.23 78.27,9.3 C78.95,9.5 79.49,10.53 79.56,11.25 C79.63,12.28 79.41,13.44 78.95,14.73 C78.27,16.57 77.22,17.42 75.8,17.27 C75.14,17.03 74.68,16.62 74.4,16.04 C74.21,15.62 74.1,15.21 74.12,14.77 C74.14,14.23 74.25,13.61 74.4,12.91 L74.39,12.91 Z M77.63,10.59 C77.17,10.61 76.71,11.18 76.23,12.28 C75.77,13.31 75.57,14.12 75.62,14.71 C75.64,15.08 76.06,15.61 76.41,15.59 C76.91,15.56 77.37,14.93 77.74,13.69 C78.03,12.68 78.16,11.96 78.13,11.55 C78.09,10.89 77.91,10.59 77.63,10.61 L77.63,10.59 Z" id="Shape"></path><path d="M87.77,14.34 C88.4,13.92 88.89,13.62 89.21,13.44 C89.34,13.59 89.41,13.7 89.41,13.81 C89.41,14.2 88.89,14.82 87.83,15.67 C86.85,16.46 86.24,16.85 86.02,16.85 C85.61,16.85 85.32,16.3 85.21,15.23 C85.14,14.44 85.1,13.65 85.06,12.87 C84.77,13.22 84.4,13.68 83.9,14.27 C83.48,14.73 83.03,15.48 82.55,16.48 C82.18,17.22 81.87,17.59 81.59,17.59 C81.37,17.59 81.2,17.44 81.04,17.16 C80.93,16.94 80.89,16.77 80.89,16.63 C80.89,16.02 81.06,14.64 81.39,12.49 C81.81,9.87 82.2,8.55 82.59,8.55 C83.09,8.55 83.51,8.95 83.51,9.29 C83.51,9.58 83.27,10.78 82.77,12.9 L82.68,13.69 C82.81,13.38 83.2,12.84 83.84,12.05 C84.63,11.07 85.22,10.61 85.61,10.67 C86.2,10.69 86.53,11.13 86.59,11.94 C86.65,12.93 86.7,13.91 86.74,14.89 C86.94,14.85 87.26,14.65 87.77,14.32 L87.77,14.34 Z" id="Path"></path><path d="M95.06,16.87 L94.47,16.87 C94.1,16.87 93.73,16.72 93.35,16.39 C92.98,16.06 92.76,15.78 92.67,15.49 C92.26,15.73 91.82,15.97 91.4,16.21 C90.79,16.54 90.31,16.69 89.96,16.69 C89.52,16.69 89.15,16.49 88.84,16.1 C88.58,15.75 88.45,15.4 88.45,15.05 C88.45,14.05 89.09,12.82 90.38,11.38 C91.67,9.93 92.81,9.21 93.84,9.21 C94.1,9.21 94.32,9.41 94.52,9.78 C94.67,10.06 94.76,10.28 94.76,10.44 C94.76,10.57 94.72,10.77 94.61,11.05 C94.52,11.33 94.46,11.48 94.39,11.53 C94.55,11.66 94.68,11.79 94.83,11.9 C95.03,12.07 95.11,12.2 95.11,12.31 C95.11,12.4 95,12.77 94.76,13.4 C94.54,14.03 94.43,14.45 94.43,14.69 C94.43,14.84 94.47,14.95 94.54,15 C94.76,15.22 95,15.33 95.26,15.33 C95.61,15.33 96.22,15.2 97.08,14.96 C97.36,14.96 97.34,15.2 97.41,15.37 C96.73,16.36 95.95,16.86 95.07,16.86 L95.06,16.87 Z M93.15,11.12 C93.15,11.05 93.15,10.96 93.17,10.9 C92.4,11.2 91.73,11.8 91.12,12.69 C90.59,13.43 90.27,14.15 90.11,14.83 C90.13,15.03 90.33,15.07 90.7,14.96 C91.55,14.28 92.05,13.84 92.23,13.69 C92.87,13.1 93.34,12.53 93.65,11.98 C93.32,11.65 93.15,11.35 93.15,11.11 L93.15,11.12 Z" id="Shape"></path><path d="M99.49,1.49 C99.56,0.61 99.67,0.02 100.63,5.68434189e-14 C100.91,5.68434189e-14 101.22,0.48 101.22,0.66 C101.24,0.86 100.91,3.13 100.23,7.49 C99.58,11.84 99.27,14.47 99.31,15.37 C99.33,16.57 99.46,17.36 99.68,17.76 C99.7,18.06 99.61,18.24 99.42,18.31 C99.4,18.35 99.31,18.4 99.11,18.44 C98.5,18.46 98.13,17.61 97.99,15.86 C97.97,15.6 97.97,15.29 97.97,14.96 C97.97,13.63 98.17,11.63 98.54,8.97 C98.78,7.55 99.08,5.4 99.44,2.52 C99.46,2.19 99.46,1.84 99.48,1.51 L99.49,1.49 Z" id="Path"></path><path d="M112.39,16.46 C111.1,17.01 110.18,17.27 109.61,17.25 C109.15,17.23 108.67,17.05 108.19,16.73 C107.62,16.33 107.34,15.9 107.31,15.39 C107.29,14.01 107.94,12.44 109.32,10.67 C110.65,8.94 111.83,8.07 112.84,8.07 C113.39,8.07 113.89,8.38 113.89,8.81 C113.89,8.9 113.78,9.14 113.56,9.53 C112.82,9.4 111.83,10.06 110.63,11.5 C109.47,12.9 108.9,14.02 108.9,14.85 C108.9,15.14 109.1,15.35 109.47,15.51 C109.71,15.62 109.91,15.66 110.11,15.66 C110.17,15.66 110.37,15.64 110.68,15.6 C111.01,15.55 111.25,15.51 111.42,15.44 C111.62,15.38 112.03,15.2 112.71,14.92 C113.39,14.64 113.74,14.48 113.8,14.46 C114.04,14.39 114.28,14.54 114.37,14.54 C114.37,14.54 114.376667,14.5566667 114.39,14.59 C114.46,14.65 114.5,14.74 114.5,14.85 C114.5,15.33 113.8,15.88 112.38,16.47 L112.39,16.46 Z" id="Path"></path><path d="M115.69,12.91 C115.89,12.03 116.13,11.38 116.41,10.94 C116.78,10.35 117.16,9.78 117.53,9.19 C117.95,8.6 118.4,8.29 118.88,8.25 C118.99,8.25 119.12,8.32 119.27,8.47 C119.47,8.67 119.58,8.86 119.58,9.08 C119.58,9.14 119.58,9.23 119.56,9.3 C120.24,9.5 120.78,10.53 120.85,11.25 C120.91,12.28 120.69,13.44 120.24,14.73 C119.56,16.57 118.51,17.42 117.09,17.27 C116.44,17.03 115.97,16.62 115.69,16.04 C115.49,15.62 115.38,15.21 115.41,14.77 C115.43,14.23 115.54,13.61 115.69,12.91 L115.69,12.91 Z M118.93,10.59 C118.47,10.61 118.01,11.18 117.53,12.28 C117.07,13.31 116.87,14.12 116.92,14.71 C116.94,15.08 117.36,15.61 117.71,15.59 C118.21,15.56 118.67,14.93 119.04,13.69 C119.33,12.68 119.46,11.96 119.43,11.55 C119.39,10.89 119.21,10.59 118.93,10.61 L118.93,10.59 Z" id="Shape"></path><path d="M129.08,14.34 C129.71,13.92 130.2,13.62 130.53,13.44 C130.66,13.59 130.73,13.7 130.73,13.81 C130.73,14.2 130.2,14.82 129.16,15.67 C128.17,16.46 127.56,16.85 127.35,16.85 C126.93,16.85 126.65,16.3 126.54,15.23 C126.47,14.44 126.43,13.65 126.39,12.87 C126.11,13.22 125.73,13.68 125.23,14.27 C124.82,14.73 124.36,15.48 123.87,16.48 C123.5,17.22 123.19,17.59 122.91,17.59 C122.69,17.59 122.52,17.44 122.36,17.16 C122.25,16.94 122.21,16.77 122.21,16.63 C122.21,16.02 122.39,14.64 122.71,12.49 C123.12,9.87 123.52,8.55 123.92,8.55 C124.42,8.55 124.84,8.95 124.84,9.29 C124.84,9.58 124.6,10.78 124.1,12.9 L124.01,13.69 C124.14,13.38 124.53,12.84 125.17,12.05 C125.96,11.07 126.55,10.61 126.94,10.67 C127.53,10.69 127.86,11.13 127.93,11.94 C128,12.93 128.04,13.91 128.08,14.89 C128.28,14.85 128.6,14.65 129.11,14.32 L129.08,14.34 Z" id="Path"></path><path d="M136.4,10.33 C136.47,10.33 136.27,10.22 135.83,10 C135.39,9.78 134.8,9.67 134.04,9.67 C133.82,9.67 133.6,9.74 133.38,9.85 C133.09,9.98 132.99,10.16 133.01,10.38 C133.05,10.62 133.27,10.92 133.69,11.34 C134.28,11.91 134.65,12.33 134.85,12.57 C135.27,13.14 135.51,13.73 135.57,14.36 C135.68,15.45 135.26,16.35 134.3,17.03 C133.49,17.6 132.57,17.88 131.59,17.88 L131.04,17.88 C130.67,17.88 130.12,17.27 130.01,16.72 C130.1,16.3 130.34,15.95 130.71,15.69 C131.1,15.41 131.3,15.27 131.3,15.27 C131.48,15.27 131.91,15.16 132.09,15.16 C132.25,15.16 132.35,15.21 132.44,15.27 C132.59,15.38 132.68,15.53 132.7,15.69 C132.72,15.89 132.77,16.02 132.81,16.08 C133.42,15.99 134.1,15.29 134.1,14.66 C134.1,13.94 133.6,13.13 132.59,12.23 C131.61,11.33 131.1,10.59 131.1,10 C131.1,9.28 131.47,8.75 132.22,8.42 C132.76,8.18 133.42,8.05 134.21,8.05 C134.69,8.05 135.24,8.18 135.85,8.47 C136.57,8.8 136.94,9.19 136.94,9.65 C136.94,10.11 136.76,10.33 136.39,10.33 L136.4,10.33 Z" id="Path"></path><path d="M145.65,16 C145.06,16.41 144.67,16.61 144.47,16.61 C143.75,16.61 143.09,16.15 142.52,15.23 C142.13,15.6 141.73,16 141.31,16.37 C140.61,17.05 140,17.4 139.5,17.4 C139,17.4 138.67,17.05 138.45,16.33 C138.34,15.92 138.27,15.48 138.27,15.04 C138.27,14.3 138.38,13.27 138.62,11.98 C138.82,11.13 138.99,10.27 139.16,9.42 C139.36,9 139.64,8.81 140.06,8.81 C140.41,8.81 140.61,9.16 140.67,9.88 C140.67,10.03 140.5,10.64 140.17,11.67 C139.84,12.7 139.69,13.44 139.69,13.95 C139.69,13.95 139.69,14.1 139.67,14.38 C139.65,14.62 139.65,14.82 139.67,14.97 C139.72,15.19 139.78,15.38 139.87,15.54 C139.93,15.56 139.98,15.56 140.02,15.56 C140.48,15.56 141.09,14.88 141.88,13.55 C142.69,12.21 143.21,11.54 143.48,11.54 C143.81,11.54 143.98,11.78 143.98,12.28 C143.98,12.56 143.9,13.44 143.9,13.79 C143.9,14.6 144.23,14.99 144.9,14.99 C144.97,14.99 145.14,14.88 145.47,14.69 C145.84,14.49 146.1,14.36 146.23,14.29 C146.47,14.38 146.6,14.55 146.6,14.84 C146.6,15.15 146.27,15.54 145.64,16 L145.65,16 Z" id="Path"></path><path d="M148.69,1.49 C148.76,0.61 148.87,0.02 149.83,5.68434189e-14 C150.11,5.68434189e-14 150.42,0.48 150.42,0.66 C150.44,0.86 150.11,3.13 149.43,7.49 C148.77,11.84 148.47,14.47 148.51,15.37 C148.53,16.57 148.66,17.36 148.88,17.76 C148.9,18.06 148.81,18.24 148.62,18.31 C148.59,18.35 148.51,18.4 148.31,18.44 C147.7,18.46 147.33,17.61 147.19,15.86 C147.17,15.6 147.17,15.29 147.17,14.96 C147.17,13.63 147.37,11.63 147.74,8.97 C147.98,7.55 148.29,5.4 148.64,2.52 C148.66,2.19 148.66,1.84 148.68,1.51 L148.69,1.49 Z" id="Path"></path><path d="M150.67,10.44 C150.56,10.22 150.5,10 150.5,9.78 C150.5,9.3 150.87,9.06 151.64,9.06 C152.19,9.06 152.64,9.04 153.04,9 C153.15,8.32 153.34,7.32 153.63,5.94 C153.83,5.04 154,4.43 154.16,4.06 C154.49,3.32 154.86,2.96 155.3,3.01 C155.39,3.03 155.54,3.14 155.78,3.34 C156.02,3.54 156.13,3.71 156.13,3.82 C156.13,3.8 155.91,4.43 155.45,5.7 C154.99,7.03 154.71,8.13 154.6,8.94 L155.54,8.88 C156.2,8.88 156.63,8.9 156.83,8.97 C156.94,9.06 157.01,9.14 157.01,9.25 C157.01,9.21 156.94,9.38 156.83,9.75 C155.67,10.21 154.86,10.47 154.4,10.54 C154.29,10.82 154.23,11.42 154.23,12.27 C154.23,13.21 154.32,14 154.47,14.65 C154.67,15.46 154.97,15.86 155.34,15.86 C155.6,15.86 155.91,15.68 156.28,15.36 C156.65,15.03 156.85,14.86 156.91,14.86 C157.02,14.86 157.15,14.82 157.22,14.82 C157.33,14.82 157.46,14.93 157.57,15.15 L157.57,15.48 C157.44,15.9 157.07,16.29 156.48,16.7 C155.89,17.11 155.41,17.31 154.99,17.31 C153.46,17.31 152.7,15.76 152.7,12.67 C152.7,12.06 152.72,11.4 152.79,10.72 C152.72,10.72 152.46,10.74 152.02,10.81 C151.6,10.85 151.34,10.87 151.28,10.87 C151.04,10.87 150.84,10.74 150.69,10.46 L150.67,10.44 Z" id="Path"></path><path d="M160.97,18.14 C160.6,18.14 160.09,17.53 159.48,16.32 C159.17,14.99 159.04,13.81 159.09,12.73 C159.16,10.98 159.16,10.06 159.09,10 L159.29,9.41 C159.4,9.15 159.64,9.02 159.99,9.02 C160.49,9.02 160.75,9.37 160.75,10.09 C160.75,10.29 160.73,10.53 160.69,10.81 C160.64,11.09 160.62,11.25 160.62,11.27 L160.62,13.5 C160.62,14.92 160.93,16.34 161.56,17.77 C161.45,18.01 161.25,18.14 160.97,18.14 L160.97,18.14 Z M161.85,6.37 C161.37,6.7 160.98,6.85 160.69,6.85 C160.4,6.85 160.16,6.72 160.01,6.48 C159.88,6.28 159.81,6.09 159.81,5.87 C159.81,5.54 159.94,5.28 160.2,5.1 C160.35,4.99 160.64,4.95 161.01,4.95 C161.27,4.95 161.51,4.99 161.75,5.08 C162.06,5.21 162.21,5.39 162.21,5.6 C162.21,5.93 162.08,6.19 161.84,6.37 L161.85,6.37 Z" id="Shape"></path><path d="M169.98,14.34 C170.62,13.92 171.1,13.62 171.42,13.44 C171.55,13.59 171.62,13.7 171.62,13.81 C171.62,14.2 171.09,14.82 170.04,15.67 C169.06,16.46 168.44,16.85 168.23,16.85 C167.81,16.85 167.53,16.3 167.42,15.23 C167.35,14.44 167.31,13.65 167.27,12.87 C166.98,13.22 166.61,13.68 166.11,14.27 C165.7,14.73 165.24,15.48 164.76,16.48 C164.39,17.22 164.08,17.59 163.8,17.59 C163.58,17.59 163.41,17.44 163.25,17.16 C163.14,16.94 163.1,16.77 163.1,16.63 C163.1,16.02 163.27,14.64 163.6,12.49 C164.02,9.87 164.41,8.55 164.8,8.55 C165.3,8.55 165.72,8.95 165.72,9.29 C165.72,9.58 165.48,10.78 164.98,12.9 L164.89,13.69 C165.02,13.38 165.42,12.84 166.05,12.05 C166.84,11.07 167.43,10.61 167.82,10.67 C168.41,10.69 168.74,11.13 168.81,11.94 C168.87,12.93 168.92,13.91 168.96,14.89 C169.16,14.85 169.49,14.65 169.99,14.32 L169.98,14.34 Z" id="Path"></path><path d="M175.99,15.87 C175.27,16.24 174.72,16.41 174.37,16.41 L173.93,16.41 C173.16,16.41 172.57,16.11 172.16,15.51 C171.83,15.03 171.68,14.48 171.68,13.87 C171.68,12.67 172.12,11.53 172.97,10.46 C173.91,9.26 175.02,8.67 176.32,8.67 C176.91,8.67 177.33,8.91 177.61,9.39 C177.67,9.54 177.87,10.09 178.16,11.05 C178.23,11.2 178.62,11.51 178.68,11.95 C178.7,12.08 178.68,12.3 178.62,12.59 C178.55,12.92 178.51,13.16 178.51,13.31 C178.51,13.42 178.53,13.51 178.55,13.62 C179.16,15.7 179.58,17.21 179.8,18.13 C179.95,18.94 180.13,19.75 180.3,20.56 C182.47,21.52 183.54,22.18 183.54,22.51 C183.54,22.84 183.43,22.99 183.19,22.99 C183.1,22.99 182.73,22.84 182.07,22.53 C181.3,22.16 180.78,21.94 180.47,21.83 C180.54,22.16 180.58,22.51 180.65,22.86 C180.71,23.54 180.71,24.59 180.69,25.99 C180.62,27.91 180.01,29.51 178.83,30.78 C177.67,31.98 176.29,32.59 174.65,32.59 C172.64,32.59 170.78,32.02 169.05,30.89 C167.02,29.51 165.98,27.74 165.98,25.55 C165.98,23.21 166.9,21.52 168.76,20.45 C170.14,19.66 171.87,19.27 173.99,19.27 C175.5,19.27 177.03,19.47 178.63,19.86 C178.61,19.34 178.19,17.65 177.34,14.83 C177.16,15.16 176.71,15.51 175.98,15.88 L175.99,15.87 Z M178.93,21.42 C177.4,20.79 175.83,20.52 174.23,20.63 C169.72,20.85 167.47,22.53 167.47,25.66 C167.47,27.21 168.26,28.52 169.85,29.64 C171.23,30.63 172.58,31.11 173.94,31.11 C175.84,31.11 177.24,30.56 178.1,29.49 C178.87,28.53 179.24,27.06 179.24,25.09 C179.24,23.38 179.13,22.16 178.93,21.41 L178.93,21.42 Z M176.45,10.25 C176.29,10.18 176.08,10.16 175.75,10.14 C175.12,10.14 174.48,10.64 173.89,11.65 C173.32,12.59 173.08,13.27 173.19,13.71 C173.39,14.54 173.78,14.96 174.33,14.96 C175.05,14.96 175.64,14.52 176.14,13.65 C176.56,12.93 176.77,12.27 176.77,11.68 C176.77,11.16 176.66,10.68 176.44,10.26 L176.45,10.25 Z" id="Shape"></path></g><path d="M186.86,52.19 C186.86,81.01 163.5,104.38 134.67,104.38 C105.84,104.38 82.48,81.02 82.48,52.19 C82.48,23.36 105.84,0 134.67,0 C163.5,0 186.86,23.37 186.86,52.19 Z" id="Path" fill="#50505A"></path><g id="Group" transform="translate(106.540000, 20.270000)" fill="#D8562F"><path d="M35.07,63.82 L14.09,63.82 C6.32,63.82 0,57.5 0,49.73 L0,14.09 C0,6.32 6.32,2.84217094e-14 14.09,2.84217094e-14 L35.07,2.84217094e-14 L35.07,12.08 L14.09,12.08 C12.98,12.08 12.08,12.98 12.08,14.1 L12.08,49.74 C12.08,50.85 12.98,51.75 14.09,51.75 L35.07,51.75 L35.07,63.83 L35.07,63.82 Z" id="Path"></path><path d="M44.2,0.01 L44.2,0.01 C44.2,0.01 44.2,0.01 44.2,0.01 C44.2,0.01 44.19,0.01 44.18,0.01 L44.18,24.62 C44.09,25.65 43.23,26.46 42.18,26.46 L21.48,26.46 L21.48,38.54 L42.18,38.54 C43.23,38.54 44.09,39.35 44.18,40.38 L44.18,63.82 C44.18,63.82 44.18,63.82 44.2,63.82 L44.2,63.82 C44.2,63.82 44.2,63.82 44.2,63.82 C51.02,62.83 56.27,56.93 56.27,49.82 L56.27,14.02 C56.27,6.9 51.01,1 44.19,0.02 L44.2,0.01 Z" id="Path"></path></g></g></g></svg> 